<svg xmlns="http://www.w3.org/2000/svg" xmlns:xlink="http://www.w3.org/1999/xlink" width="82" height="42" version="1.1" viewBox="0 21 82 43"><rect width="9.317" height="9.488" x="0" y="21.083" fill="#000"/><rect width="9.317" height="9.488" x="10.352" y="31.625" fill="#000"/><rect width="9.317" height="9.488" x="0" y="42.167" fill="#000"/><rect width="9.317" height="9.488" x="10.352" y="52.709" fill="#000"/><rect width="9.317" height="9.488" x="20.705" y="52.709" fill="#000"/><rect width="9.317" height="9.488" x="31.057" y="42.167" fill="#000"/><rect width="9.317" height="9.488" x="41.41" y="31.625" fill="#000"/><rect width="9.317" height="9.488" x="51.762" y="21.083" fill="#000"/><rect width="9.317" height="9.488" x="51.762" y="42.167" fill="#000"/><rect width="9.317" height="9.488" x="51.762" y="52.709" fill="#000"/><rect width="9.317" height="9.488" x="72.467" y="52.709" fill="#000"/><rect width="9.317" height="9.488" x="72.467" y="31.625" fill="#000"/><rect width="9.317" height="9.488" x="72.467" y="10.542" fill="#000"/><rect width="9.317" height="9.488" x="62.114" y="21.083" fill="#000"/><rect width="9.317" height="9.488" x="72.467" y="0" fill="#000"/><rect width="9.317" height="9.488" x="51.762" y="0" fill="#000"/><rect width="9.317" height="9.488" x="20.705" y="0" fill="#000"/><rect width="9.317" height="9.488" x="31.057" y="10.542" fill="#000"/></svg>