<svg xmlns="http://www.w3.org/2000/svg" xmlns:xlink="http://www.w3.org/1999/xlink" width="66" height="65" version="1.1" viewBox="0 0 66 65"><title>Group 7</title><desc>Created with Sketch.</desc><g id="CI-stuff" fill="none" fill-rule="evenodd" stroke="none" stroke-width="1"><g id="NXS-new-logo" transform="translate(-133.000000, -150.000000)"><g id="Group-7" transform="translate(129.000000, 151.000000)"><g id="Group-2" transform="translate(36.500000, 44.500000) rotate(-180.000000) translate(-36.500000, -44.500000) translate(0.000000, 14.000000)"><g id="Group-4" stroke-linecap="round" stroke-linejoin="round" stroke-width="3" transform="translate(0.000000, 10.573770)"><g id="Group" stroke="#6660A0" transform="translate(8.042173, 8.929917) rotate(-240.000000) translate(-8.042173, -8.929917) translate(0.042173, 4.929917)"><path id="Line" d="M8.86369205,0.100282473 L8.69307037,7.12842659"/><polyline id="Path-20650" points=".278 3.259 8.693 7.332 15.748 3.259"/></g><g id="Group" stroke="#C7BDE6" transform="translate(8.042802, 40.699415) scale(1, -1) rotate(-240.000000) translate(-8.042802, -40.699415) translate(0.042802, 36.699415)"><path id="Line" d="M8.86369205,0.100282473 L8.69307037,7.12842659"/><polyline id="Path-20650" points=".278 3.259 8.693 7.332 15.748 3.259"/></g></g><g id="Group-3" stroke-linecap="round" stroke-linejoin="round" stroke-width="3" transform="translate(56.103448, 10.573770)"><g id="Group" stroke="#6660A0" transform="translate(8.030998, 8.929917) scale(-1, 1) rotate(-240.000000) translate(-8.030998, -8.929917) translate(0.030998, 4.929917)"><path id="Line" d="M8.86369205,0.100282473 L8.69307037,7.12842659"/><polyline id="Path-20650" points=".278 3.259 8.693 7.332 15.748 3.259"/></g><g id="Group" stroke="#C7BDE6" transform="translate(8.030368, 40.699415) scale(-1, -1) rotate(-240.000000) translate(-8.030368, -40.699415) translate(0.030368, 36.699415)"><path id="Line" d="M8.86369205,0.100282473 L8.69307037,7.12842659"/><polyline id="Path-20650" points=".278 3.259 8.693 7.332 15.748 3.259"/></g></g></g><g id="Group-5" stroke="#C7BDE6" stroke-linecap="round" stroke-linejoin="round" stroke-width="3" transform="translate(28.344828, 27.131148)"><path id="Line" d="M4.09378492,15.557377 L0,13.0203329" transform="translate(2.046892, 14.288855) scale(-1, 1) translate(-2.046892, -14.288855)"/><path id="Line" d="M9.5,-1.4899797e-09 L9.5,4.78688524" transform="translate(9.500000, 2.393443) scale(-1, 1) translate(-9.500000, -2.393443)"/><path id="Line" d="M15.4234565,15.557377 L19.5172414,13.0203329" transform="translate(17.470349, 14.288855) scale(-1, 1) translate(-17.470349, -14.288855)"/></g><g id="Group" stroke="#6660A0" stroke-linecap="round" stroke-linejoin="round" stroke-width="3" transform="translate(37.362069, 5.073770) rotate(-180.000000) translate(-37.362069, -5.073770) translate(26.862069, 0.573770)"><g id="Group-6"><path id="Line" d="M10.5,0.183536538 L10.5,7.20829064"/><polyline id="Path-20650" points=".603 1.393 10.259 8.574 20.517 1.393"/></g></g></g></g></g></svg>